<svg xmlns:xlink="http://www.w3.org/1999/xlink" xmlns="http://www.w3.org/2000/svg" viewBox="0 0 335.0101706764135 371" preserveAspectRatio="xMidYMid meet" class="css-18azjue" id="hddcfcgb" width="335.0101706764135"  height="371" ><defs id="SvgjsDefs6139"><linearGradient id="SvgjsLinearGradient6148"><stop id="SvgjsStop6149" stop-color="#2d388a" offset="0"></stop><stop id="SvgjsStop6150" stop-color="#00aeef" offset="1"></stop></linearGradient><linearGradient id="SvgjsLinearGradient6151"><stop id="SvgjsStop6152" stop-color="#2d388a" offset="0"></stop><stop id="SvgjsStop6153" stop-color="#00aeef" offset="1"></stop></linearGradient><linearGradient id="SvgjsLinearGradient6154"><stop id="SvgjsStop6155" stop-color="#2d388a" offset="0"></stop><stop id="SvgjsStop6156" stop-color="#00aeef" offset="1"></stop></linearGradient><linearGradient id="SvgjsLinearGradient6148"><stop id="SvgjsStop6149" stop-color="#2d388a" offset="0"></stop><stop id="SvgjsStop6150" stop-color="#00aeef" offset="1"></stop></linearGradient><linearGradient id="SvgjsLinearGradient6148"><stop id="SvgjsStop6149" stop-color="#2d388a" offset="0"></stop><stop id="SvgjsStop6150" stop-color="#00aeef" offset="1"></stop></linearGradient><linearGradient id="SvgjsLinearGradient6151"><stop id="SvgjsStop6152" stop-color="#2d388a" offset="0"></stop><stop id="SvgjsStop6153" stop-color="#00aeef" offset="1"></stop></linearGradient><linearGradient id="SvgjsLinearGradient6151"><stop id="SvgjsStop6152" stop-color="#2d388a" offset="0"></stop><stop id="SvgjsStop6153" stop-color="#00aeef" offset="1"></stop></linearGradient><linearGradient id="SvgjsLinearGradient6151"><stop id="SvgjsStop6152" stop-color="#2d388a" offset="0"></stop><stop id="SvgjsStop6153" stop-color="#00aeef" offset="1"></stop></linearGradient><linearGradient id="SvgjsLinearGradient6151"><stop id="SvgjsStop6152" stop-color="#2d388a" offset="0"></stop><stop id="SvgjsStop6153" stop-color="#00aeef" offset="1"></stop></linearGradient><linearGradient id="SvgjsLinearGradient6151"><stop id="SvgjsStop6152" stop-color="#2d388a" offset="0"></stop><stop id="SvgjsStop6153" stop-color="#00aeef" offset="1"></stop></linearGradient><linearGradient id="SvgjsLinearGradient6151"><stop id="SvgjsStop6152" stop-color="#2d388a" offset="0"></stop><stop id="SvgjsStop6153" stop-color="#00aeef" offset="1"></stop></linearGradient><linearGradient id="SvgjsLinearGradient6151"><stop id="SvgjsStop6152" stop-color="#2d388a" offset="0"></stop><stop id="SvgjsStop6153" stop-color="#00aeef" offset="1"></stop></linearGradient><linearGradient id="SvgjsLinearGradient6151"><stop id="SvgjsStop6152" stop-color="#2d388a" offset="0"></stop><stop id="SvgjsStop6153" stop-color="#00aeef" offset="1"></stop></linearGradient><linearGradient id="SvgjsLinearGradient6151"><stop id="SvgjsStop6152" stop-color="#2d388a" offset="0"></stop><stop id="SvgjsStop6153" stop-color="#00aeef" offset="1"></stop></linearGradient><linearGradient id="SvgjsLinearGradient6151"><stop id="SvgjsStop6152" stop-color="#2d388a" offset="0"></stop><stop id="SvgjsStop6153" stop-color="#00aeef" offset="1"></stop></linearGradient><linearGradient id="SvgjsLinearGradient6154"><stop id="SvgjsStop6155" stop-color="#2d388a" offset="0"></stop><stop id="SvgjsStop6156" stop-color="#00aeef" offset="1"></stop></linearGradient><linearGradient id="SvgjsLinearGradient6154"><stop id="SvgjsStop6155" stop-color="#2d388a" offset="0"></stop><stop id="SvgjsStop6156" stop-color="#00aeef" offset="1"></stop></linearGradient></defs><g id="SvgjsG6140" featurekey="rootContainer" transform="matrix(1,0,0,1,0,0)" fill="url(&quot;#SvgjsLinearGradient6148&quot;)"><path xmlns="http://www.w3.org/2000/svg" fill-rule="evenodd" d="M5,65 L167.5,0 L330, 65 L167.5, 10 z M5,291 L167.5,371 L330,286 L167.5, 361 z" fill="url(&quot;#SvgjsLinearGradient6148&quot;)"></path></g><g id="SvgjsG6141" featurekey="symbolFeature-0" transform="matrix(1.6318276346848017,0,0,1.6318276346848017,85.8627861641221,66.84249353593704)" fill="url(&quot;#SvgjsLinearGradient6151&quot;)"><g xmlns="http://www.w3.org/2000/svg" fill="url(&quot;#SvgjsLinearGradient6151&quot;)"><g fill="url(&quot;#SvgjsLinearGradient6151&quot;)"><path d="M76.059,56.865c-1.349-7.308-7.265-13.014-14.68-14.046c-0.029-0.004-0.061-0.005-0.091-0.011    c-0.243-0.031-0.485-0.059-0.73-0.082c-0.001,0.024-0.009,0.049-0.009,0.073c-0.004,0.072-0.016,0.142-0.024,0.215    c-0.046,0.407-0.167,0.802-0.356,1.183c-1.264,3.178-5.313,9.163-7.757,12.645h23.191C75.757,56.842,75.908,56.851,76.059,56.865z    " fill="url(&quot;#SvgjsLinearGradient6151&quot;)"></path><path d="M51.819,49.781c0.71-0.364,1.322-0.968,1.714-1.668c0.282-0.503,0.455-1.053,0.455-1.614c0,0-1.816,0.805-3.67,0.805    c-0.105,0-0.211-0.001-0.317-0.007c-0.105,0.006-0.211,0.007-0.317,0.007c-1.854,0-3.669-0.805-3.669-0.805    c0,0.561,0.172,1.111,0.455,1.614c0.392,0.7,1.003,1.303,1.714,1.668l-0.493,7.061h4.622L51.819,49.781z" fill="url(&quot;#SvgjsLinearGradient6151&quot;)"></path><path d="M47.59,56.842c-2.446-3.481-6.495-9.466-7.757-12.645c-0.19-0.381-0.312-0.776-0.357-1.183    c-0.009-0.073-0.02-0.143-0.024-0.215c-0.001-0.024-0.009-0.049-0.009-0.073c-0.246,0.023-0.489,0.051-0.732,0.082    c-0.03,0.006-0.062,0.007-0.09,0.011c-7.414,1.032-13.33,6.738-14.679,14.046c0.15-0.015,0.302-0.023,0.455-0.023H47.59z" fill="url(&quot;#SvgjsLinearGradient6151&quot;)"></path><path d="M31.801,14.098l1.228,0.532l-0.103,0.825c-0.471,0.08-0.83,0.489-0.83,0.982c0,0.444,0.289,0.82,0.691,0.948    l-0.746,10.442c-0.03,0.435,0.057,1.131,0.195,1.545l0.604,1.814c0.139,0.416,0.363,0.416,0.501,0l0.606-1.814    c0.139-0.415,0.226-1.11,0.194-1.545l-0.745-10.442c0.399-0.129,0.69-0.504,0.69-0.948c0-0.494-0.358-0.902-0.83-0.982    l-0.096-0.767l2.834,1.228l1.389,0.601v5.06c-0.158,0.573-0.293,1.155-0.38,1.756c-0.1,0.684-0.15,1.387-0.15,2.099    c0,0.29,0.013,0.578,0.028,0.863c0.022,0.418,0.063,0.83,0.122,1.236c0.01,0.125,0.02,0.248,0.032,0.372    C37.867,37.279,43.354,44.525,50,44.525S62.135,37.279,62.963,27.9c0.012-0.124,0.023-0.247,0.032-0.372    c0.059-0.407,0.098-0.818,0.122-1.236c0.017-0.285,0.027-0.573,0.027-0.863c0-0.711-0.05-1.415-0.149-2.099    c-0.087-0.6-0.223-1.182-0.38-1.754v-5.063l1.389-0.6l4.195-1.817c1.098-0.475,1.098-1.251,0-1.727L51.995,5.356    c-1.097-0.476-2.891-0.476-3.989,0l-16.205,7.015C30.705,12.847,30.705,13.623,31.801,14.098z M40.259,23.118l1.715,0.742    l6.032,2.612c1.098,0.476,2.893,0.476,3.989,0l6.033-2.612l1.714-0.743c0.343,2.563-0.191,5.742-0.191,5.742    c0.685-0.478,1.312-0.725,1.823-0.853C60.621,36.198,55.816,42.514,50,42.514c-5.815,0-10.62-6.316-11.375-14.508    c0.511,0.128,1.14,0.375,1.824,0.853C40.45,28.859,39.916,25.68,40.259,23.118z" fill="url(&quot;#SvgjsLinearGradient6151&quot;)"></path></g><path d="M73.212,93.065H26.787c-0.534,0-0.967,0.434-0.967,0.967c0,0.534,0.433,0.968,0.967,0.968h46.425   c0.534,0,0.968-0.434,0.968-0.968C74.18,93.499,73.746,93.065,73.212,93.065z" fill="url(&quot;#SvgjsLinearGradient6151&quot;)"></path><path d="M76.059,58.155c-0.15-0.015-0.302-0.023-0.456-0.023H52.411h-0.1h-4.622H47.59H24.397c-0.153,0-0.305,0.009-0.455,0.023   c-2.38,0.229-4.248,2.239-4.248,4.679v0.11l0.019,0.109l4.25,24.649c0.063,2.538,2.148,4.584,4.702,4.584h42.671   c2.553,0,4.638-2.046,4.701-4.584l4.249-24.649l0.02-0.109v-0.11C80.306,60.396,78.438,58.386,76.059,58.155z M71.336,90.997   H28.665c-1.885,0-3.414-1.528-3.414-3.413l-4.268-24.75c0-1.885,1.529-3.413,3.414-3.413h51.205c1.885,0,3.413,1.528,3.413,3.413   l-4.267,24.75C74.749,89.469,73.221,90.997,71.336,90.997z" fill="url(&quot;#SvgjsLinearGradient6151&quot;)"></path><circle cx="50" cy="74.783" r="2.023" fill="url(&quot;#SvgjsLinearGradient6151&quot;)"></circle></g></g><g id="SvgjsG6142" featurekey="nameLeftFeature-0" transform="matrix(1.6006528109268485,0,0,1.6006528109268485,-1.2485095283532663,248.2924516699708)" fill="url(&quot;#SvgjsLinearGradient6154&quot;)"><path d="M13.64 16.8 c-0.42 0.64 -0.72 1.06 -0.92 1.3 c-0.64 0.72 -2.4 2.32 -5.16 2.32 c-0.5 0 -1.66 -0.06 -2.88 -0.6 c-3.72 -1.68 -3.9 -5.78 -3.9 -6.9 c0 -0.86 0.1 -3.08 1.72 -5.04 c0.64 -0.8 2.24 -2.44 5.12 -2.44 c1.9 0 3.74 0.78 4.98 2.2 c0.52 0.6 0.84 1.22 0.98 1.46 l-2.78 1.38 c-0.2 -0.4 -0.34 -0.62 -0.46 -0.78 c-0.26 -0.38 -1.12 -1.36 -2.56 -1.36 c-0.4 0 -1.34 0.08 -2.14 0.84 c-0.58 0.54 -1.34 1.72 -1.34 3.66 c0 0.18 0 0.52 0.06 0.96 c0.24 1.94 1.08 2.82 1.86 3.26 c0.26 0.16 0.8 0.4 1.56 0.4 c1.98 0 2.74 -1.54 3.06 -2.08 z M28.14 20 l-3.76 0 l-0.7 -2.26 l-5.2 0 l-0.7 2.26 l-3.76 0 l5.24 -14.12 l3.68 0 z M22.880000000000003 15.2 l-1.84 -5.96 l-1.74 5.96 l3.58 0 z M42 20 l-3.88 0 l-2.82 -5.04 l-2.2 0 l0 5.04 l-3.56 0 l0 -14.12 l6.36 0 c0.4 0 0.8 0 1.2 0.02 c0.64 0.04 2.88 0.18 3.98 2.2 c0.2 0.38 0.56 1.2 0.56 2.36 c0 1.58 -0.62 2.42 -1.1 2.88 c-0.2 0.2 -0.44 0.38 -0.66 0.52 c-0.26 0.14 -0.56 0.28 -1.14 0.5 z M38.120000000000005 10.38 c0 -1.84 -1.42 -1.88 -2.04 -1.88 l-3 0 l0 3.84 l2.92 0 c0.14 0 0.54 0 0.94 -0.14 c1.14 -0.38 1.18 -1.46 1.18 -1.82 z M56.16 20 l-3.88 0 l-2.82 -5.04 l-2.2 0 l0 5.04 l-3.56 0 l0 -14.12 l6.36 0 c0.4 0 0.8 0 1.2 0.02 c0.64 0.04 2.88 0.18 3.98 2.2 c0.2 0.38 0.56 1.2 0.56 2.36 c0 1.58 -0.62 2.42 -1.1 2.88 c-0.2 0.2 -0.44 0.38 -0.66 0.52 c-0.26 0.14 -0.56 0.28 -1.14 0.5 z M52.28 10.38 c0 -1.84 -1.42 -1.88 -2.04 -1.88 l-3 0 l0 3.84 l2.92 0 c0.14 0 0.54 0 0.94 -0.14 c1.14 -0.38 1.18 -1.46 1.18 -1.82 z M68.96 20 l-11.08 0 l0 -14.12 l10.44 0 l0 2.72 l-6.92 0 l0 2.58 l6.46 0 l0 2.68 l-6.46 0 l0 3.36 l7.56 0 l0 2.78 z M83.24 20 l-3.88 0 l-2.82 -5.04 l-2.2 0 l0 5.04 l-3.56 0 l0 -14.12 l6.36 0 c0.4 0 0.8 0 1.2 0.02 c0.64 0.04 2.88 0.18 3.98 2.2 c0.2 0.38 0.56 1.2 0.56 2.36 c0 1.58 -0.62 2.42 -1.1 2.88 c-0.2 0.2 -0.44 0.38 -0.66 0.52 c-0.26 0.14 -0.56 0.28 -1.14 0.5 z M79.36 10.38 c0 -1.84 -1.42 -1.88 -2.04 -1.88 l-3 0 l0 3.84 l2.92 0 c0.14 0 0.54 0 0.94 -0.14 c1.14 -0.38 1.18 -1.46 1.18 -1.82 z" fill="url(&quot;#SvgjsLinearGradient6154&quot;)"></path></g><g id="SvgjsG6143" featurekey="nameRightFeature-0" transform="matrix(1.5963901923479826,0,0,1.5963901923479826,140.5379171705437,248.37949052542277)" fill="#137DC5"><path d="M19.04 20 l-3.46 0 l-5.12 -8.74 l0.12 8.74 l-3.4 0 l0 -14.12 l3.46 0 l5.16 8.86 l-0.14 -8.86 l3.38 0 l0 14.12 z M34.52 20 l-3.76 0 l-0.7 -2.26 l-5.2 0 l-0.7 2.26 l-3.76 0 l5.24 -14.12 l3.68 0 z M29.26 15.2 l-1.84 -5.96 l-1.74 5.96 l3.58 0 z M47.22 5.880000000000001 l-4.9 14.12 l-3.6 0 l-4.84 -14.12 l3.76 0 l2.92 10.04 l2.9 -10.04 l3.76 0 z M52.099999999999994 20 l-3.52 0 l0 -14.12 l3.52 0 l0 14.12 z M67.58 20 l-2.76 0 l0 -1.3 c-0.38 0.34 -0.68 0.58 -0.86 0.7 c-1.32 0.88 -2.74 0.92 -3.3 0.92 c-0.5 0 -1.54 -0.04 -2.72 -0.6 c-2.56 -1.24 -3.64 -4.06 -3.64 -6.78 c0 -1.04 0.2 -4.8 3.48 -6.64 c0.58 -0.34 1.76 -0.9 3.48 -0.9 c2.64 0 4.26 1.24 5 1.9 c0.5 0.44 0.82 0.84 1.22 1.36 l-2.68 1.62 c-0.06 -0.1 -0.46 -0.74 -0.9 -1.12 c-0.9 -0.82 -1.98 -0.86 -2.38 -0.86 c-0.26 0 -1.2 0.02 -1.94 0.5 c-0.84 0.54 -1.76 1.78 -1.76 4.04 c0 0.3 0 2.28 0.98 3.48 c0.36 0.44 0.84 0.68 1.02 0.78 c0.26 0.12 0.9 0.38 1.7 0.38 c0.24 0 0.68 0 1.22 -0.18 c0.28 -0.1 1.14 -0.44 1.56 -1.3 c0.22 -0.44 0.28 -1.04 0.3 -1.16 l-3.16 0 l0 -2.68 l6.14 0 l0 7.84 z M82.6 20 l-3.76 0 l-0.7 -2.26 l-5.2 0 l-0.7 2.26 l-3.76 0 l5.24 -14.12 l3.68 0 z M77.34 15.2 l-1.84 -5.96 l-1.74 5.96 l3.58 0 z M92.63999999999999 8.66 l-3.66 0 l0 11.34 l-3.56 0 l0 -11.34 l-3.68 0 l0 -2.78 l10.9 0 l0 2.78 z M107.16 13.04 c0 2.16 -0.94 4.48 -2.68 5.9 c-0.76 0.62 -2.12 1.48 -4.44 1.48 c-0.86 0 -3.2 -0.14 -5 -2.02 c-1.9 -2 -2.02 -4.68 -2.02 -5.52 c0 -0.74 0.1 -2.74 1.34 -4.56 c0.72 -1.06 2.36 -2.88 5.64 -2.88 c2.68 0 4.3 1.2 5.04 1.96 c1.36 1.4 2.12 3.7 2.12 5.64 z M103.61999999999999 13.280000000000001 c0.06 -1.78 -0.48 -2.98 -0.9 -3.56 c-0.18 -0.24 -0.6 -0.74 -1.36 -1.06 c-0.6 -0.24 -1.12 -0.26 -1.36 -0.26 c-0.78 0 -1.32 0.26 -1.58 0.4 c-1.42 0.8 -1.92 2.54 -1.92 4.04 c0 1.92 0.6 2.96 1.18 3.58 c0.62 0.66 1.46 1.02 2.38 1.02 c0.46 0 1.56 -0.12 2.44 -1.06 c0.8 -0.86 1.08 -1.98 1.12 -3.1 z M121.82 20 l-3.88 0 l-2.82 -5.04 l-2.2 0 l0 5.04 l-3.56 0 l0 -14.12 l6.36 0 c0.4 0 0.8 0 1.2 0.02 c0.64 0.04 2.88 0.18 3.98 2.2 c0.2 0.38 0.56 1.2 0.56 2.36 c0 1.58 -0.62 2.42 -1.1 2.88 c-0.2 0.2 -0.44 0.38 -0.66 0.52 c-0.26 0.14 -0.56 0.28 -1.14 0.5 z M117.94 10.38 c0 -1.84 -1.42 -1.88 -2.04 -1.88 l-3 0 l0 3.84 l2.92 0 c0.14 0 0.54 0 0.94 -0.14 c1.14 -0.38 1.18 -1.46 1.18 -1.82 z" fill="#137DC5"></path></g></svg>